<?xml version="1.0" encoding="utf-8"?>
<!-- Generator: Adobe Illustrator 24.2.0, SVG Export Plug-In . SVG Version: 6.00 Build 0)  -->
<svg version="1.1" id="_레이어_1" xmlns="http://www.w3.org/2000/svg" xmlns:xlink="http://www.w3.org/1999/xlink" x="0px"
	 y="0px" viewBox="0 0 578.3 75.8" style="enable-background:new 0 0 578.3 75.8;" xml:space="preserve" fill="#0000C5">
<path d="M77.7,1.5H103c5.9,0,11.1,0.9,15.7,2.7s8.5,4.3,11.6,7.4s5.6,7,7.2,11.4c1.6,4.4,2.5,9.3,2.5,14.5v0.2
	c0,5.3-0.9,10.1-2.5,14.6s-4.1,8.3-7.3,11.6c-3.2,3.3-7.1,5.8-11.8,7.6c-4.7,1.8-9.9,2.8-15.8,2.8H77.7L77.7,1.5L77.7,1.5z
	 M103.3,56.4c5.4,0,9.8-1.6,13.2-4.8c3.3-3.2,5-7.7,5-13.6v-0.2c0-5.8-1.7-10.4-5-13.6c-3.3-3.2-7.7-4.8-13.2-4.8h-7.4v37
	L103.3,56.4L103.3,56.4z"/>
<path d="M144.2,1.5h52.6v17.2h-34.8v11h31.5v15.9h-31.5v11.5h35.2v17.2h-53.1L144.2,1.5L144.2,1.5L144.2,1.5z"/>
<path d="M201.5,1.5h31c5.1,0,9.3,0.7,12.8,2.1c3.5,1.4,6.3,3.3,8.5,5.8c3.9,4.2,5.8,9.8,5.8,17v0.2c0,5.6-1.2,10.3-3.7,13.9
	s-5.7,6.5-9.8,8.4l15.6,25.4h-21l-13.2-22h-8v22h-18.2L201.5,1.5L201.5,1.5L201.5,1.5z M231.6,36.4c3.1,0,5.5-0.8,7.2-2.3
	c1.7-1.5,2.5-3.7,2.5-6.3v-0.2c0-2.9-0.9-5.1-2.6-6.5c-1.7-1.4-4.1-2.1-7.2-2.1h-11.9v17.5L231.6,36.4L231.6,36.4L231.6,36.4z"/>
<path d="M263.7,1.5h52.6v17.2h-34.8v11H313v15.9h-31.5v11.5h35.2v17.2h-53.1L263.7,1.5L263.7,1.5L263.7,1.5z"/>
<path d="M321,1.5h31c5,0,9.3,0.7,12.8,2.1c3.5,1.4,6.3,3.3,8.5,5.8c3.9,4.2,5.8,9.8,5.8,17v0.2c0,5.6-1.2,10.3-3.7,13.9
	s-5.7,6.5-9.8,8.4l15.6,25.4h-21l-13.2-22h-8v22H321L321,1.5L321,1.5L321,1.5z M351.1,36.4c3.1,0,5.5-0.8,7.2-2.3
	c1.7-1.5,2.5-3.7,2.5-6.3v-0.2c0-2.9-0.9-5.1-2.6-6.5c-1.7-1.4-4.1-2.1-7.2-2.1h-11.9v17.5L351.1,36.4L351.1,36.4L351.1,36.4z"/>
<path d="M383.2,1.5h31c5,0,9.3,0.7,12.8,2.1c3.5,1.4,6.3,3.3,8.5,5.8c3.9,4.2,5.8,9.8,5.8,17v0.2c0,5.6-1.2,10.3-3.7,13.9
	s-5.7,6.5-9.8,8.4l15.6,25.4h-21l-13.2-22h-8v22h-18.2L383.2,1.5L383.2,1.5L383.2,1.5z M413.3,36.4c3.1,0,5.5-0.8,7.2-2.3
	c1.7-1.5,2.5-3.7,2.5-6.3v-0.2c0-2.9-0.9-5.1-2.6-6.5c-1.7-1.4-4.1-2.1-7.2-2.1h-11.9v17.5L413.3,36.4L413.3,36.4L413.3,36.4z"/>
<path d="M478.3,75.8c-5,0-9.7-1-14-3s-8-4.7-11.1-8.1c-3.1-3.4-5.6-7.4-7.4-12c-1.8-4.6-2.7-9.5-2.7-14.7v-0.2
	c0-5.2,0.9-10.1,2.7-14.7c1.8-4.6,4.3-8.6,7.4-12.1c3.2-3.4,6.9-6.1,11.2-8.1s9-3,14-3s9.7,1,14,3s8,4.7,11.1,8.1
	c3.1,3.4,5.6,7.4,7.4,12c1.8,4.6,2.7,9.5,2.7,14.7v0.2c0,5.2-0.9,10.1-2.7,14.7s-4.3,8.6-7.4,12.1c-3.2,3.4-6.9,6.1-11.2,8.1
	C488.1,74.8,483.4,75.8,478.3,75.8z M478.5,57.5c2.5,0,4.8-0.5,6.9-1.5s3.8-2.5,5.3-4.2c1.4-1.8,2.6-3.8,3.4-6.2s1.2-4.8,1.2-7.5
	v-0.2c0-2.6-0.4-5.1-1.2-7.5s-2-4.4-3.5-6.3c-1.5-1.8-3.3-3.3-5.4-4.3c-2.1-1.1-4.4-1.6-6.9-1.6s-4.8,0.5-6.8,1.6
	c-2,1-3.8,2.5-5.3,4.2c-1.5,1.8-2.6,3.8-3.4,6.2c-0.8,2.4-1.2,4.9-1.2,7.5v0.2c0,2.6,0.4,5.1,1.2,7.5s2,4.4,3.4,6.3
	c1.5,1.8,3.2,3.3,5.3,4.3C473.7,57,476,57.6,478.5,57.5L478.5,57.5L478.5,57.5z"/>
<path d="M518,1.5h31c5,0,9.3,0.7,12.8,2.1c3.5,1.4,6.3,3.3,8.5,5.8c3.9,4.2,5.8,9.8,5.8,17v0.2c0,5.6-1.2,10.3-3.7,13.9
	s-5.7,6.5-9.8,8.4l15.6,25.4h-21l-13.2-22h-8v22H518L518,1.5L518,1.5L518,1.5z M548.2,36.4c3.1,0,5.5-0.8,7.2-2.3
	c1.7-1.5,2.5-3.7,2.5-6.3v-0.2c0-2.9-0.9-5.1-2.6-6.5c-1.7-1.4-4.1-2.1-7.2-2.1h-11.9v17.5L548.2,36.4L548.2,36.4L548.2,36.4z"/>
<path d="M54.2,1.5h-6.8L0,74.3h21.8l8.3-12.7h24.1v12.7h18.3V1.5C72.5,1.5,54.2,1.5,54.2,1.5z M40.4,45.7l13.8-21.1v21.1H40.4z"/>
</svg>
